<?xml version="1.0" encoding="utf-8"?>
<!-- Generator: Adobe Illustrator 21.0.0, SVG Export Plug-In . SVG Version: 6.00 Build 0)  -->
<svg version="1.1" id="Layer_1" xmlns="http://www.w3.org/2000/svg" xmlns:xlink="http://www.w3.org/1999/xlink" x="0px" y="0px"
	 viewBox="0 0 500 500" style="enable-background:new 0 0 500 500;" xml:space="preserve">
<style type="text/css">
	.st0{fill:#FFFFFF;}
	.st1{fill:#3B77C9;}
	.st2{fill:#FFA44F;}
</style>
<rect x="0.5" y="0.5" class="st0" width="500" height="500"/>
<g>
	<path class="st1" d="M467.1,341.4c0,0-54.1-27.8-139.2-39.4c-1.2,6.3-4.8,12-10.4,15.9c-8.5,5.9-19.3,6.2-28.1,0.6
		c-0.4-0.3-0.9-0.6-1.3-0.8c-2.6-1.8-4.9-3.8-7-6.2c-0.2,3.8-1,7.6-2.4,11.3c-0.2,0.5-0.4,0.9-0.6,1.4c-0.6,1.5-1.4,2.9-2.2,4.2
		c51.3,1.6,125.5,8.6,189.1,20.3C469.6,349.6,471.4,343.1,467.1,341.4z"/>
	<path class="st1" d="M231.3,324.3c-0.2-0.5-0.4-0.9-0.6-1.4c-1.4-3.6-2.2-7.4-2.4-11.3c-2.1,2.3-4.4,4.4-7,6.2
		c-0.4,0.3-0.8,0.6-1.3,0.8c-8.8,5.6-19.5,5.4-28.1-0.5c-5.6-3.9-9.3-9.6-10.5-16c-43.9,6.1-90.8,18.3-139.4,39.2
		c-4.3,1.8-2.5,8.2,2.1,7.3c63.7-11.8,138.1-18.8,189.4-20.4C232.7,327.1,232,325.7,231.3,324.3z"/>
</g>
<path class="st2" d="M348.7,241.4L348.7,241.4c-0.3-0.3-0.7-0.6-1-0.9c-9.1-7.5-21.4-9.4-32.2-5.6c0-0.6,0-1.3,0-1.9
	c0-2.2-0.1-4.5-0.3-6.7c10.9,3.9,23.4,2.1,32.6-5.5c0.3-0.3,0.7-0.6,1-0.9l0,0c13.4-11.9,6-34.1-11.9-35.4h0c-0.5,0-0.9-0.1-1.4-0.1
	c-11.8-0.5-22.6,5.4-29,14.9c-1.3-2.2-2.8-4.4-4.4-6.4c9.9-3.9,17.7-12.4,20.3-23.1c0.1-0.4,0.2-0.9,0.3-1.3v0
	c3.7-17.6-15.6-30.8-30.7-21.2v0c-0.4,0.2-0.8,0.5-1.1,0.7c-8.8,6-13.8,15.8-14.3,26c-2.3-0.9-4.6-1.6-7.1-2.2
	c6.4-9,8.2-20.7,4.1-31.3c-0.2-0.4-0.3-0.8-0.5-1.3v0c-7-16.5-30.4-16.5-37.3,0v0c-0.2,0.4-0.3,0.8-0.5,1.3
	c-4,10.6-2.2,22.3,4.2,31.3c-2.4,0.6-4.7,1.4-7,2.2c-0.5-10.3-5.6-20-14.4-26c-0.4-0.3-0.7-0.5-1.1-0.7h0
	c-15.1-9.6-34.4,3.7-30.7,21.3v0c0.1,0.4,0.2,0.9,0.3,1.3c2.6,10.7,10.4,19.1,20.3,23c-1.6,2-3.1,4.1-4.4,6.3
	c-6.5-9.4-17.3-15.2-29-14.7c-0.5,0-0.9,0-1.4,0.1c-17.9,1.4-25.2,23.6-11.7,35.4v0c0.3,0.3,0.7,0.6,1,0.9
	c9.1,7.5,21.4,9.3,32.3,5.5c-0.2,2.1-0.3,4.3-0.3,6.5c0,0.7,0,1.3,0,2c-10.8-3.6-22.9-1.7-31.9,5.8c-0.3,0.3-0.7,0.6-1,0.9v0
	c-13.4,11.9-6,34.1,11.9,35.4h0c0.5,0,0.9,0.1,1.4,0.1c10.8,0.4,20.8-4.5,27.3-12.6c1,1.9,2.1,3.7,3.3,5.5
	c-8.6,4.3-15.1,12.1-17.5,21.8c-0.1,0.4-0.2,0.9-0.3,1.3v0c-3.7,17.5,15.6,30.9,30.7,21.3l0,0c0.4-0.2,0.8-0.5,1.1-0.7
	c7.4-5.1,12.2-12.8,13.8-21.2c1.6,0.6,3.2,1.2,4.9,1.7c-4.2,8.2-4.9,18-1.5,27c0.2,0.4,0.3,0.8,0.5,1.3v0c7,16.5,30.4,16.5,37.3-0.1
	l0,0c0.2-0.4,0.3-0.8,0.5-1.3c3.4-9,2.6-18.8-1.6-27c1.7-0.5,3.3-1.1,4.9-1.7c1.6,8.4,6.4,16.1,13.8,21.2c0.4,0.3,0.8,0.5,1.1,0.7
	l0,0c15.1,9.6,34.4-3.8,30.6-21.3v0c-0.1-0.4-0.2-0.9-0.3-1.3c-2.4-9.7-9-17.5-17.7-21.8c1.2-1.8,2.3-3.6,3.3-5.6
	c6.5,8.2,16.6,13.2,27.4,12.7c0.5,0,0.9,0,1.4-0.1h0C354.7,275.5,362.2,253.3,348.7,241.4z M261.4,281.3c-2.3,0.3-4.6,0.5-6.9,0.5
	c-2.2,0-4.4-0.2-6.6-0.5c-5.9-0.8-11.6-2.8-16.6-5.8c-3.4-2-6.5-4.4-9.3-7.3c-0.6-0.7-1.3-1.3-1.9-2c-4.9-5.6-8.4-12.4-10.2-19.9
	c-0.2-0.8-0.4-1.7-0.6-2.5c-0.7-3.5-1.1-7.1-1.1-10.7c0-13.5,4.9-25.8,13.7-34.7c0.8-0.9,1.7-1.7,2.6-2.4c1.5-1.3,3-2.5,4.7-3.5
	c7.1-4.7,15.5-7.3,24.3-7.5c0.3,0,0.7,0,1,0c0.4,0,0.7,0,1.1,0c9.1,0.2,17.4,2.9,24.4,7.5c1.6,1.1,3.2,2.2,4.6,3.5
	c10,8.7,16.2,21.9,16.2,37.2c0,3.7-0.4,7.3-1.1,10.8c-0.1,0.6-0.2,1.2-0.4,1.8c-1.8,7.8-5.4,14.7-10.2,20.4
	c-3.2,3.7-6.9,6.9-11.1,9.4C273.1,278.4,267.5,280.5,261.4,281.3z"/>
</svg>
